<svg xmlns="http://www.w3.org/2000/svg" viewBox="0 0 184 244" role="img" aria-label="实验班提优训练暑假衔接英语封面">
  <defs>
    <filter id="soft" x="-20%" y="-20%" width="140%" height="140%">
      <feDropShadow dx="0" dy="3" stdDeviation="2" flood-color="#3b0c40" flood-opacity="0.25"/>
    </filter>
  </defs>
  <rect width="184" height="244" fill="#a4008f"/>
  <rect x="10" y="12" width="164" height="220" fill="#fff3a1"/>
  <g fill="#2baa4b" transform="translate(26 20)">
    <path d="M13 18c8-9 17-12 27-11-8 2-13 7-16 13 7-7 14-11 23-12-7 3-13 8-17 14 7-3 15-4 22-1-7 2-13 6-18 11-9 10-24 11-34 3-9-8-8-24 1-34z"/>
    <text x="0" y="38" font-size="8" font-family="Microsoft YaHei, sans-serif">春雨教育</text>
  </g>
  <text x="106" y="46" text-anchor="middle" fill="#241612" font-size="26" font-weight="900" font-family="Microsoft YaHei, sans-serif">实验班</text>
  <text x="106" y="67" text-anchor="middle" fill="#241612" font-size="16" font-weight="800" font-family="Microsoft YaHei, sans-serif">提优训练</text>
  <path d="M62 76h95c8 0 15 6 15 14v50c0 10-7 18-17 18H86c-10 0-18-8-18-18V92c0-9 7-16 16-16z" fill="#a70093"/>
  <text x="120" y="118" text-anchor="middle" fill="#ffffff" font-size="42" font-weight="900" font-family="Microsoft YaHei, sans-serif" filter="url(#soft)">暑假</text>
  <text x="120" y="160" text-anchor="middle" fill="#ffffff" font-size="40" font-weight="900" font-family="Microsoft YaHei, sans-serif" filter="url(#soft)">衔接</text>
  <circle cx="160" cy="154" r="8" fill="#fff36d"/>
  <text x="160" y="158" text-anchor="middle" fill="#8f0076" font-size="10" font-weight="800" font-family="Microsoft YaHei, sans-serif">版</text>
  <g transform="translate(26 132)">
    <path d="M0 28c9-15 20-23 33-24 9-1 18 3 24 11-7 12-18 21-33 27L7 38z" fill="#f6fbff" stroke="#9aa7d1"/>
    <path d="M25 16c12 10 15 24 9 41" stroke="#4f7ecf" stroke-width="2" fill="none"/>
    <circle cx="22" cy="45" r="7" fill="#ffb34d"/>
    <path d="M18 48c7 3 15 2 22-2" stroke="#ff8a00" stroke-width="6" stroke-linecap="round"/>
  </g>
  <g fill="#ff2a2a" font-size="10" font-weight="700" font-family="Microsoft YaHei, sans-serif">
    <text x="100" y="172">温故知新  衔接上下学年</text>
    <text x="102" y="186">举一反三  贯通复习预习</text>
  </g>
  <g transform="translate(28 182)">
    <rect width="18" height="14" rx="2" fill="#f7fff0"/>
    <text x="23" y="12" fill="#2f7df6" font-size="8" font-weight="900" font-family="Microsoft YaHei, sans-serif">AI提分学伴</text>
    <rect y="18" width="18" height="18" fill="#ffffff" stroke="#222" stroke-width="0.6"/>
    <path d="M2 20h14v14H2z" fill="#fff"/>
    <path d="M2 20l14 14M16 20L2 34M9 20v14M2 27h14" stroke="#111" stroke-width="0.8"/>
    <text x="22" y="31" fill="#df1b19" font-size="8" font-weight="900" font-family="Microsoft YaHei, sans-serif">视频精讲</text>
  </g>
  <text x="136" y="202" fill="#231815" font-size="10" font-weight="900" font-family="KaiTi, STKaiti, serif">英语</text>
  <text x="130" y="220" fill="#8a2f00" font-size="7" font-family="Microsoft YaHei, sans-serif">江苏人民出版社</text>
</svg>